<svg height="479pt" viewBox="0 0 479.99792 479" width="479pt" xmlns="http://www.w3.org/2000/svg"><path d="m359.996094 240.496094c0-66.273438-53.722656-120-120-120-66.273438 0-120 53.726562-120 120 0 66.273437 53.726562 120 120 120 66.246094-.074219 119.925781-53.757813 120-120zm-176 87.496094v-15.496094c-.046875-17.324219 11.136718-32.683594 27.640625-37.953125l21.007812 49.105469c1.261719 2.941406 4.152344 4.847656 7.351563 4.847656 3.199218 0 6.09375-1.90625 7.355468-4.847656l21-49.105469c16.507813 5.265625 27.699219 20.625 27.644532 37.953125v15.496094c-34.089844 22.007812-77.90625 22.007812-112 0zm44.167968-55.496094h23.664063l-11.832031 27.65625zm83.832032 42.871094v-2.871094c-.085938-30.890625-25.105469-55.910156-56-56h-32c-30.890625.089844-55.910156 25.109375-56 56v2.871094c-30.636719-29.390626-40.328125-74.457032-24.488282-113.847657 15.839844-39.390625 54.035157-65.199219 96.488282-65.199219 42.457031 0 80.652344 25.808594 96.492187 65.199219 15.839844 39.390625 6.144531 84.457031-24.492187 113.847657zm0 0"/><path d="m279.996094 216.496094v-8c4.421875 0 8-3.582032 8-8v-8c-.023438-22.078125-17.917969-39.972656-40-40h-16c-22.078125.027344-39.972656 17.921875-40 40v8c0 4.417968 3.582031 8 8 8v8c0 22.09375 17.910156 40 40 40 22.09375 0 40-17.90625 40-40zm-48-48h16c13.257812 0 24 10.746094 24 24h-30.109375l-14.3125-7.160156c-3.082031-1.535157-6.800781-.929688-9.230469 1.503906l-5.65625 5.65625h-4.691406c0-13.253906 10.746094-24 24-24zm8 72c-13.253906 0-24-10.746094-24-24v-8c2.125 0 4.15625-.84375 5.65625-2.34375l3.921875-3.917969 10.847656 5.421875c1.109375.554688 2.335937.839844 3.574219.839844h24v8c0 13.253906-10.742188 24-24 24zm0 0"/><path d="m479.996094 240.496094c-.035156-15.484375-11.152344-28.722656-26.398438-31.429688-5.132812-35.292968-19.011718-68.742187-40.375-97.296875 8.988282-12.683593 7.503906-30.007812-3.511718-40.976562-11.148438-10.601563-28.160157-12.050781-40.9375-3.480469-28.566407-21.382812-62.03125-35.277344-97.34375-40.414062-2.675782-15.265626-15.933594-26.398438-31.433594-26.398438-15.496094 0-28.753906 11.132812-31.429688 26.398438-35.320312 5.132812-68.792968 19.027343-97.367187 40.414062-12.777344-8.570312-29.789063-7.121094-40.9375 3.480469-11.019531 10.972656-12.503907 28.296875-3.511719 40.984375-21.355469 28.554687-35.226562 62-40.351562 97.289062-15.265626 2.675782-26.398438 15.933594-26.398438 31.429688s11.132812 28.753906 26.398438 31.433594c5.132812 35.289062 19.015624 68.734374 40.382812 97.289062-8.976562 12.691406-7.503906 30.003906 3.488281 41 10.992188 10.992188 28.304688 12.46875 41 3.492188 28.558594 21.367187 62.003907 35.25 97.296875 40.386718 2.675782 15.261719 15.933594 26.398438 31.429688 26.398438 15.5 0 28.757812-11.136719 31.433594-26.398438 35.292968-5.132812 68.738281-19.015625 97.296874-40.375 12.691407 8.992188 30.015626 7.523438 41.015626-3.472656 10.996093-11 12.464843-28.324219 3.472656-41.015625 21.367187-28.558594 35.25-62.011719 40.382812-97.304687 15.246094-2.710938 26.363282-15.949219 26.398438-31.433594zm-16 0c0 8.835937-7.160156 16-16 16-8.835938 0-16-7.164063-16-16 0-8.835938 7.164062-16 16-16 8.839844 0 16 7.164062 16 16zm-76.917969-163.078125c6.472656-.003907 12.308594 3.894531 14.785156 9.871093 2.476563 5.980469 1.109375 12.863282-3.464843 17.441407-6.328126 6.042969-16.296876 6.042969-22.625 0-4.574219-4.578125-5.941407-11.457031-3.464844-17.4375 2.472656-5.976563 8.308594-9.875 14.777344-9.875zm-147.082031-60.921875c8.839844 0 16 7.164062 16 16 0 8.835937-7.160156 16-16 16-8.835938 0-16-7.164063-16-16 0-8.835938 7.164062-16 16-16zm-158.398438 65.601562c4.015625-4.160156 9.964844-5.828125 15.558594-4.363281 5.597656 1.464844 9.964844 5.832031 11.429688 11.425781 1.464843 5.59375-.203126 11.542969-4.363282 15.5625-6.328125 6.042969-16.296875 6.042969-22.625 0-6.246094-6.25-6.246094-16.378906 0-22.625zm-65.601562 158.398438c0-8.835938 7.164062-16 16-16 8.839844 0 16 7.164062 16 16 0 8.835937-7.160156 16-16 16-8.835938 0-16-7.164063-16-16zm65.601562 158.402344c-6.25-6.25-6.25-16.382813-.003906-22.628907 6.25-6.25 16.382812-6.25 22.628906 0 6.25 6.246094 6.25 16.378907 0 22.628907-6.328125 6.046874-16.296875 6.046874-22.625 0zm158.398438 65.597656c-8.835938 0-16-7.164063-16-16 0-8.835938 7.164062-16 16-16 8.839844 0 16 7.164062 16 16 0 8.835937-7.160156 16-16 16zm0-48c-13.617188.042968-25.714844 8.714844-30.125 21.601562-31.976563-4.8125-62.28125-17.390625-88.273438-36.625 6.074219-12.207031 3.625-26.933594-6.070312-36.519531-9.769532-9.285156-24.222656-11.648437-36.441406-5.960937-19.273438-26.011719-31.871094-56.355469-36.6875-88.367188 12.921874-4.363281 21.625-16.488281 21.625-30.128906s-8.703126-25.761719-21.625-30.128906c4.808593-31.972657 17.386718-62.28125 36.625-88.269532 12.214843 6.035156 26.917968 3.613282 36.554687-6.019531 9.636719-9.636719 12.058594-24.339844 6.019531-36.558594 25.992188-19.234375 56.296875-31.808593 88.273438-36.621093 4.363281 12.921874 16.484375 21.621093 30.125 21.621093 13.644531 0 25.765625-8.699219 30.128906-21.621093 31.976562 4.808593 62.285156 17.382812 88.273438 36.621093-6.015626 12.21875-3.585938 26.90625 6.042968 36.535157 9.628906 9.625 24.316406 12.054687 36.53125 6.042968 19.238282 25.988282 31.816406 56.296875 36.625 88.269532-12.921875 4.367187-21.625 16.488281-21.625 30.128906s8.703125 25.765625 21.625 30.128906c-4.828125 32.019531-17.445312 62.363281-36.734375 88.367188-12.21875-5.683594-26.667969-3.320313-36.433593 5.960937-9.691407 9.589844-12.140626 24.308594-6.078126 36.519531-25.976562 19.230469-56.265624 31.804688-88.226562 36.625-4.40625-12.890625-16.503906-21.5625-30.128906-21.601562zm158.402344-17.597656c-6.328126 6.046874-16.296876 6.046874-22.625 0-6.25-6.25-6.25-16.382813 0-22.628907 6.246093-6.25 16.378906-6.25 22.625 0 6.25 6.246094 6.25 16.378907 0 22.628907zm0 0"/></svg>