<svg id="Layer_1" enable-background="new 0 0 512 512" height="512" viewBox="0 0 512 512" width="512" xmlns="http://www.w3.org/2000/svg"><g><path d="m352 304h-192c-8.836 0-16 7.164-16 16v80c0 26.467 21.533 48 48 48h128c26.467 0 48-21.533 48-48v-80c0-8.836-7.164-16-16-16zm-16 96c0 8.822-7.178 16-16 16h-128c-8.822 0-16-7.178-16-16v-64h160z"/><path d="m480 272h-48c0-34.689 1.668-57.074-9.724-89.805 6.198-11.357 9.724-24.371 9.724-38.195v-32c0-26.467-21.533-48-48-48h-64c0-35.29-28.71-64-64-64s-64 28.71-64 64h-64c-26.467 0-48 21.533-48 48v32c0 13.824 3.526 26.838 9.724 38.195-11.397 32.745-9.724 55.158-9.724 89.805h-48c-8.836 0-16 7.164-16 16v96c0 39.238 28.403 71.944 65.723 78.699 6.662 28.225 32.046 49.301 62.277 49.301h224c30.231 0 55.615-21.076 62.277-49.301 37.32-6.755 65.723-39.461 65.723-78.699v-96c0-8.836-7.164-16-16-16zm-224-240c17.645 0 32 14.355 32 32h-64c0-17.645 14.355-32 32-32zm-144 80c0-8.822 7.178-16 16-16h256c8.822 0 16 7.178 16 16v32c0 26.467-21.533 48-48 48h-8v-8c0-8.836-7.164-16-16-16s-16 7.164-16 16v8h-112v-8c0-8.836-7.164-16-16-16s-16 7.164-16 16v8h-8c-26.467 0-48-21.533-48-48zm-64 272v-80h32v125.258c-18.625-6.603-32-24.398-32-45.258zm320 96h-224c-17.645 0-32-14.355-32-32 0-223.872-1.127-217.795 3.095-237.829 12.811 8.722 28.272 13.829 44.905 13.829h8v8c0 8.836 7.164 16 16 16s16-7.164 16-16v-8h112v8c0 8.836 7.164 16 16 16s16-7.164 16-16v-8c11.503 0 31.072 1.035 52.905-13.829 4.102 19.468 3.095 6.08 3.095 237.829 0 17.645-14.355 32-32 32zm96-96c0 20.86-13.375 38.655-32 45.258v-125.258h32z"/></g></svg>