<svg xmlns="http://www.w3.org/2000/svg" style="display: none;"><symbol id="book" viewBox="0 0 512 512"><title>book</title><path d="m88 456c-8.837 0-16-7.164-16-16v-374c0-36.393 29.607-66 66-66h286c8.837 0 16 7.164 16 16v368c0 8.836-7.163 16-16 16s-16-7.164-16-16v-352h-270c-18.748 0-34 15.252-34 34v374c0 8.836-7.163 16-16 16z"/><path d="m424 512h-280c-39.701 0-72-32.299-72-72s32.299-72 72-72h280c8.837 0 16 7.164 16 16s-7.163 16-16 16h-280c-22.056 0-40 17.944-40 40s17.944 40 40 40h280c8.837 0 16 7.164 16 16s-7.163 16-16 16z"/><path d="m424 456h-280c-8.837 0-16-7.164-16-16s7.163-16 16-16h280c8.837 0 16 7.164 16 16s-7.163 16-16 16z"/><path d="m160 400c-8.837 0-16-7.164-16-16v-368c0-8.836 7.163-16 16-16s16 7.164 16 16v368c0 8.836-7.163 16-16 16z"/></symbol><symbol id="band-aid" viewBox="0 0 512 512"><title>band-aid</title><g> <g> <path d="M476.511,35.489c-47.32-47.318-124.313-47.318-171.633,0L35.49,304.877c-47.32,47.32-47.32,124.314,0,171.634 C59.15,500.17,90.228,512,121.307,512s62.157-11.83,85.818-35.489l109.404-109.404c3.906-3.907,3.907-10.24,0-14.146 s-10.24-3.906-14.146,0L192.979,462.365c-39.52,39.52-103.823,39.52-143.343,0s-39.52-103.822,0-143.342L319.023,49.635 c39.52-39.52,103.823-39.52,143.343,0c39.52,39.52,39.52,103.822,0,143.342L358.679,296.664c-3.906,3.907-3.906,10.24,0,14.146 c3.907,3.906,10.24,3.906,14.146,0l103.686-103.687C523.83,159.804,523.83,82.81,476.511,35.489z"/> </g> </g><g> <g> <path d="M356.093,230.507l-74.6-74.6c-11.518-11.517-30.256-11.517-41.775,0l-82.888,82.888 c-5.579,5.579-8.652,12.998-8.652,20.888s3.073,15.308,8.652,20.888l74.6,74.6c5.579,5.579,12.998,8.652,20.888,8.652 c7.89,0,15.308-3.074,20.887-8.652l82.889-82.888C367.61,260.764,367.61,242.025,356.093,230.507z M341.948,258.137 l-82.889,82.888c-1.8,1.8-4.195,2.793-6.742,2.793s-4.941-0.991-6.741-2.793l-74.6-74.6c-1.8-1.8-2.793-4.195-2.793-6.742 c0-2.547,0.991-4.941,2.793-6.741l82.887-82.888c1.859-1.859,4.301-2.789,6.742-2.789c2.442,0,4.883,0.929,6.742,2.788l74.6,74.6 C345.665,248.369,345.665,254.419,341.948,258.137z"/> </g> </g><g> <g> <path d="M135.104,292.168c-1.87-1.86-4.441-2.931-7.072-2.931c-2.641,0-5.211,1.07-7.082,2.931 c-1.86,1.86-2.931,4.441-2.931,7.072c0,2.641,1.07,5.211,2.931,7.072c1.87,1.87,4.441,2.931,7.082,2.931 c2.631,0,5.201-1.06,7.072-2.931c1.86-1.86,2.931-4.431,2.931-7.072C138.035,296.609,136.964,294.029,135.104,292.168z"/> </g> </g><g> <g> <path d="M176.543,333.617c-1.86-1.86-4.441-2.931-7.072-2.931c-2.631,0-5.211,1.07-7.072,2.931s-2.931,4.441-2.931,7.072 c0,2.631,1.07,5.211,2.931,7.072s4.441,2.931,7.072,2.931c2.631,0,5.211-1.071,7.072-2.931c1.86-1.86,2.931-4.441,2.931-7.072 C179.474,338.058,178.403,335.478,176.543,333.617z"/> </g> </g><g> <g> <path d="M217.992,375.056c-1.86-1.86-4.441-2.931-7.072-2.931c-2.641,0-5.221,1.07-7.082,2.931 c-1.86,1.86-2.921,4.441-2.921,7.072c0,2.641,1.06,5.211,2.921,7.072c1.87,1.87,4.441,2.931,7.082,2.931 c2.631,0,5.201-1.059,7.072-2.931c1.86-1.86,2.931-4.431,2.931-7.072C220.923,379.497,219.853,376.916,217.992,375.056z"/> </g> </g><g> <g> <path d="M79.842,347.43c-1.86-1.86-4.441-2.931-7.072-2.931c-2.631,0-5.211,1.07-7.072,2.931s-2.931,4.441-2.931,7.072 c0,2.631,1.07,5.211,2.931,7.072c1.86,1.86,4.441,2.931,7.072,2.931c2.631,0,5.211-1.07,7.072-2.931 c1.86-1.86,2.931-4.441,2.931-7.072C82.772,351.871,81.702,349.291,79.842,347.43z"/> </g> </g><g> <g> <path d="M121.281,388.87c-1.86-1.86-4.431-2.921-7.072-2.921c-2.631,0-5.211,1.06-7.072,2.921c-1.86,1.87-2.931,4.441-2.931,7.082 c0,2.631,1.07,5.201,2.931,7.072c1.86,1.86,4.441,2.931,7.072,2.931c2.641,0,5.211-1.071,7.072-2.931 c1.87-1.87,2.931-4.441,2.931-7.072C124.211,393.311,123.151,390.74,121.281,388.87z"/> </g> </g><g> <g> <path d="M127.532,341.189c-1.86-1.87-4.441-2.931-7.072-2.931c-2.631,0-5.211,1.06-7.072,2.931 c-1.86,1.86-2.931,4.431-2.931,7.072c0,2.631,1.07,5.211,2.931,7.072s4.441,2.931,7.072,2.931c2.631,0,5.211-1.07,7.072-2.931 c1.86-1.86,2.931-4.441,2.931-7.072C130.463,345.62,129.393,343.049,127.532,341.189z"/> </g> </g><g> <g> <path d="M168.971,382.628c-1.86-1.86-4.441-2.931-7.072-2.931c-2.631,0-5.211,1.07-7.072,2.931 c-1.86,1.86-2.931,4.441-2.931,7.072c0,2.631,1.07,5.211,2.931,7.072c1.86,1.86,4.441,2.931,7.072,2.931 c2.631,0,5.211-1.071,7.072-2.931c1.87-1.86,2.931-4.441,2.931-7.072C171.902,387.069,170.842,384.489,168.971,382.628z"/> </g> </g><g> <g> <path d="M162.73,430.318c-1.86-1.86-4.441-2.931-7.072-2.931c-2.641,0-5.211,1.07-7.072,2.931c-1.86,1.86-2.931,4.441-2.931,7.072 c0,2.631,1.07,5.211,2.931,7.072c1.86,1.86,4.441,2.931,7.072,2.931c2.631,0,5.211-1.069,7.072-2.931 c1.86-1.86,2.931-4.441,2.931-7.072C165.661,434.759,164.59,432.178,162.73,430.318z"/> </g> </g><g> <g> <path d="M391.051,205.689c-1.87-1.87-4.441-2.931-7.072-2.931c-2.641,0-5.211,1.06-7.082,2.931 c-1.86,1.86-2.931,4.441-2.931,7.072s1.07,5.211,2.931,7.072c1.86,1.86,4.441,2.931,7.082,2.931c2.631,0,5.211-1.07,7.072-2.931 c1.86-1.86,2.931-4.441,2.931-7.072S392.911,207.549,391.051,205.689z"/> </g> </g><g> <g> <path d="M349.602,164.239c-1.86-1.86-4.441-2.931-7.072-2.931c-2.631,0-5.211,1.07-7.072,2.931s-2.931,4.441-2.931,7.072 c0,2.631,1.07,5.211,2.931,7.072c1.86,1.86,4.441,2.931,7.072,2.931c2.631,0,5.211-1.069,7.072-2.931 c1.86-1.86,2.931-4.431,2.931-7.072C352.532,168.68,351.462,166.099,349.602,164.239z"/> </g> </g><g> <g> <path d="M308.162,122.79c-1.86-1.86-4.441-2.921-7.072-2.921c-2.641,0-5.211,1.06-7.082,2.921c-1.86,1.87-2.921,4.441-2.921,7.082 c0,2.631,1.06,5.201,2.921,7.072c1.87,1.86,4.441,2.931,7.082,2.931c2.631,0,5.201-1.071,7.072-2.931 c1.86-1.87,2.931-4.441,2.931-7.072C311.093,127.231,310.023,124.661,308.162,122.79z"/> </g> </g><g> <g> <path d="M446.303,150.427c-1.86-1.86-4.431-2.931-7.072-2.931c-2.631,0-5.211,1.07-7.072,2.931 c-1.86,1.86-2.931,4.441-2.931,7.072c0,2.631,1.07,5.211,2.931,7.072s4.441,2.931,7.072,2.931c2.641,0,5.211-1.07,7.072-2.931 s2.931-4.441,2.931-7.072C449.234,154.868,448.164,152.287,446.303,150.427z"/> </g> </g><g> <g> <path d="M404.864,108.976c-1.86-1.86-4.441-2.921-7.072-2.921c-2.641,0-5.211,1.06-7.072,2.921 c-1.86,1.86-2.931,4.441-2.931,7.072c0,2.641,1.07,5.221,2.931,7.082c1.86,1.86,4.431,2.921,7.072,2.921 c2.631,0,5.211-1.059,7.072-2.921c1.86-1.87,2.931-4.441,2.931-7.082C407.795,113.417,406.724,110.847,404.864,108.976z"/> </g> </g><g> <g> <path d="M398.612,156.668c-1.86-1.86-4.441-2.921-7.072-2.921c-2.631,0-5.211,1.06-7.072,2.921 c-1.86,1.86-2.931,4.441-2.931,7.072c0,2.641,1.07,5.211,2.931,7.072c1.86,1.87,4.441,2.931,7.072,2.931 c2.631,0,5.211-1.06,7.072-2.931c1.87-1.86,2.931-4.431,2.931-7.072C401.543,161.109,400.483,158.528,398.612,156.668z"/> </g> </g><g> <g> <path d="M357.173,115.228c-1.86-1.86-4.441-2.931-7.072-2.931c-2.641,0-5.211,1.07-7.072,2.931 c-1.87,1.86-2.931,4.441-2.931,7.072s1.06,5.211,2.931,7.072c1.86,1.86,4.431,2.931,7.072,2.931c2.631,0,5.211-1.07,7.072-2.931 c1.86-1.86,2.931-4.441,2.931-7.072S359.034,117.088,357.173,115.228z"/> </g> </g><g> <g> <path d="M363.415,67.538c-1.86-1.86-4.431-2.931-7.072-2.931c-2.631,0-5.211,1.07-7.072,2.931c-1.86,1.86-2.931,4.441-2.931,7.072 c0,2.631,1.07,5.211,2.931,7.072c1.86,1.86,4.441,2.931,7.072,2.931c2.641,0,5.211-1.071,7.072-2.931 c1.86-1.86,2.931-4.441,2.931-7.072C366.345,71.979,365.275,69.399,363.415,67.538z"/> </g> </g><g> <g> <path d="M343.82,325.676c-1.86-1.87-4.441-2.931-7.072-2.931c-2.641,0-5.211,1.06-7.072,2.931c-1.87,1.86-2.931,4.431-2.931,7.072 c0,2.631,1.06,5.211,2.931,7.072c1.86,1.86,4.431,2.931,7.072,2.931c2.631,0,5.211-1.07,7.072-2.931 c1.86-1.86,2.931-4.441,2.931-7.072C346.751,330.117,345.681,327.536,343.82,325.676z"/> </g> </g></symbol><symbol id="skill" viewBox="0 0 479.99792 479"><title>skill</title><path d="m359.996094 240.496094c0-66.273438-53.722656-120-120-120-66.273438 0-120 53.726562-120 120 0 66.273437 53.726562 120 120 120 66.246094-.074219 119.925781-53.757813 120-120zm-176 87.496094v-15.496094c-.046875-17.324219 11.136718-32.683594 27.640625-37.953125l21.007812 49.105469c1.261719 2.941406 4.152344 4.847656 7.351563 4.847656 3.199218 0 6.09375-1.90625 7.355468-4.847656l21-49.105469c16.507813 5.265625 27.699219 20.625 27.644532 37.953125v15.496094c-34.089844 22.007812-77.90625 22.007812-112 0zm44.167968-55.496094h23.664063l-11.832031 27.65625zm83.832032 42.871094v-2.871094c-.085938-30.890625-25.105469-55.910156-56-56h-32c-30.890625.089844-55.910156 25.109375-56 56v2.871094c-30.636719-29.390626-40.328125-74.457032-24.488282-113.847657 15.839844-39.390625 54.035157-65.199219 96.488282-65.199219 42.457031 0 80.652344 25.808594 96.492187 65.199219 15.839844 39.390625 6.144531 84.457031-24.492187 113.847657zm0 0"/><path d="m279.996094 216.496094v-8c4.421875 0 8-3.582032 8-8v-8c-.023438-22.078125-17.917969-39.972656-40-40h-16c-22.078125.027344-39.972656 17.921875-40 40v8c0 4.417968 3.582031 8 8 8v8c0 22.09375 17.910156 40 40 40 22.09375 0 40-17.90625 40-40zm-48-48h16c13.257812 0 24 10.746094 24 24h-30.109375l-14.3125-7.160156c-3.082031-1.535157-6.800781-.929688-9.230469 1.503906l-5.65625 5.65625h-4.691406c0-13.253906 10.746094-24 24-24zm8 72c-13.253906 0-24-10.746094-24-24v-8c2.125 0 4.15625-.84375 5.65625-2.34375l3.921875-3.917969 10.847656 5.421875c1.109375.554688 2.335937.839844 3.574219.839844h24v8c0 13.253906-10.742188 24-24 24zm0 0"/><path d="m479.996094 240.496094c-.035156-15.484375-11.152344-28.722656-26.398438-31.429688-5.132812-35.292968-19.011718-68.742187-40.375-97.296875 8.988282-12.683593 7.503906-30.007812-3.511718-40.976562-11.148438-10.601563-28.160157-12.050781-40.9375-3.480469-28.566407-21.382812-62.03125-35.277344-97.34375-40.414062-2.675782-15.265626-15.933594-26.398438-31.433594-26.398438-15.496094 0-28.753906 11.132812-31.429688 26.398438-35.320312 5.132812-68.792968 19.027343-97.367187 40.414062-12.777344-8.570312-29.789063-7.121094-40.9375 3.480469-11.019531 10.972656-12.503907 28.296875-3.511719 40.984375-21.355469 28.554687-35.226562 62-40.351562 97.289062-15.265626 2.675782-26.398438 15.933594-26.398438 31.429688s11.132812 28.753906 26.398438 31.433594c5.132812 35.289062 19.015624 68.734374 40.382812 97.289062-8.976562 12.691406-7.503906 30.003906 3.488281 41 10.992188 10.992188 28.304688 12.46875 41 3.492188 28.558594 21.367187 62.003907 35.25 97.296875 40.386718 2.675782 15.261719 15.933594 26.398438 31.429688 26.398438 15.5 0 28.757812-11.136719 31.433594-26.398438 35.292968-5.132812 68.738281-19.015625 97.296874-40.375 12.691407 8.992188 30.015626 7.523438 41.015626-3.472656 10.996093-11 12.464843-28.324219 3.472656-41.015625 21.367187-28.558594 35.25-62.011719 40.382812-97.304687 15.246094-2.710938 26.363282-15.949219 26.398438-31.433594zm-16 0c0 8.835937-7.160156 16-16 16-8.835938 0-16-7.164063-16-16 0-8.835938 7.164062-16 16-16 8.839844 0 16 7.164062 16 16zm-76.917969-163.078125c6.472656-.003907 12.308594 3.894531 14.785156 9.871093 2.476563 5.980469 1.109375 12.863282-3.464843 17.441407-6.328126 6.042969-16.296876 6.042969-22.625 0-4.574219-4.578125-5.941407-11.457031-3.464844-17.4375 2.472656-5.976563 8.308594-9.875 14.777344-9.875zm-147.082031-60.921875c8.839844 0 16 7.164062 16 16 0 8.835937-7.160156 16-16 16-8.835938 0-16-7.164063-16-16 0-8.835938 7.164062-16 16-16zm-158.398438 65.601562c4.015625-4.160156 9.964844-5.828125 15.558594-4.363281 5.597656 1.464844 9.964844 5.832031 11.429688 11.425781 1.464843 5.59375-.203126 11.542969-4.363282 15.5625-6.328125 6.042969-16.296875 6.042969-22.625 0-6.246094-6.25-6.246094-16.378906 0-22.625zm-65.601562 158.398438c0-8.835938 7.164062-16 16-16 8.839844 0 16 7.164062 16 16 0 8.835937-7.160156 16-16 16-8.835938 0-16-7.164063-16-16zm65.601562 158.402344c-6.25-6.25-6.25-16.382813-.003906-22.628907 6.25-6.25 16.382812-6.25 22.628906 0 6.25 6.246094 6.25 16.378907 0 22.628907-6.328125 6.046874-16.296875 6.046874-22.625 0zm158.398438 65.597656c-8.835938 0-16-7.164063-16-16 0-8.835938 7.164062-16 16-16 8.839844 0 16 7.164062 16 16 0 8.835937-7.160156 16-16 16zm0-48c-13.617188.042968-25.714844 8.714844-30.125 21.601562-31.976563-4.8125-62.28125-17.390625-88.273438-36.625 6.074219-12.207031 3.625-26.933594-6.070312-36.519531-9.769532-9.285156-24.222656-11.648437-36.441406-5.960937-19.273438-26.011719-31.871094-56.355469-36.6875-88.367188 12.921874-4.363281 21.625-16.488281 21.625-30.128906s-8.703126-25.761719-21.625-30.128906c4.808593-31.972657 17.386718-62.28125 36.625-88.269532 12.214843 6.035156 26.917968 3.613282 36.554687-6.019531 9.636719-9.636719 12.058594-24.339844 6.019531-36.558594 25.992188-19.234375 56.296875-31.808593 88.273438-36.621093 4.363281 12.921874 16.484375 21.621093 30.125 21.621093 13.644531 0 25.765625-8.699219 30.128906-21.621093 31.976562 4.808593 62.285156 17.382812 88.273438 36.621093-6.015626 12.21875-3.585938 26.90625 6.042968 36.535157 9.628906 9.625 24.316406 12.054687 36.53125 6.042968 19.238282 25.988282 31.816406 56.296875 36.625 88.269532-12.921875 4.367187-21.625 16.488281-21.625 30.128906s8.703125 25.765625 21.625 30.128906c-4.828125 32.019531-17.445312 62.363281-36.734375 88.367188-12.21875-5.683594-26.667969-3.320313-36.433593 5.960937-9.691407 9.589844-12.140626 24.308594-6.078126 36.519531-25.976562 19.230469-56.265624 31.804688-88.226562 36.625-4.40625-12.890625-16.503906-21.5625-30.128906-21.601562zm158.402344-17.597656c-6.328126 6.046874-16.296876 6.046874-22.625 0-6.25-6.25-6.25-16.382813 0-22.628907 6.246093-6.25 16.378906-6.25 22.625 0 6.25 6.246094 6.25 16.378907 0 22.628907zm0 0"/></symbol><symbol id="backpack" viewBox="0 0 512 512"><title>backpack</title><path d="m352 304h-192c-8.836 0-16 7.164-16 16v80c0 26.467 21.533 48 48 48h128c26.467 0 48-21.533 48-48v-80c0-8.836-7.164-16-16-16zm-16 96c0 8.822-7.178 16-16 16h-128c-8.822 0-16-7.178-16-16v-64h160z"/><path d="m480 272h-48c0-34.689 1.668-57.074-9.724-89.805 6.198-11.357 9.724-24.371 9.724-38.195v-32c0-26.467-21.533-48-48-48h-64c0-35.29-28.71-64-64-64s-64 28.71-64 64h-64c-26.467 0-48 21.533-48 48v32c0 13.824 3.526 26.838 9.724 38.195-11.397 32.745-9.724 55.158-9.724 89.805h-48c-8.836 0-16 7.164-16 16v96c0 39.238 28.403 71.944 65.723 78.699 6.662 28.225 32.046 49.301 62.277 49.301h224c30.231 0 55.615-21.076 62.277-49.301 37.32-6.755 65.723-39.461 65.723-78.699v-96c0-8.836-7.164-16-16-16zm-224-240c17.645 0 32 14.355 32 32h-64c0-17.645 14.355-32 32-32zm-144 80c0-8.822 7.178-16 16-16h256c8.822 0 16 7.178 16 16v32c0 26.467-21.533 48-48 48h-8v-8c0-8.836-7.164-16-16-16s-16 7.164-16 16v8h-112v-8c0-8.836-7.164-16-16-16s-16 7.164-16 16v8h-8c-26.467 0-48-21.533-48-48zm-64 272v-80h32v125.258c-18.625-6.603-32-24.398-32-45.258zm320 96h-224c-17.645 0-32-14.355-32-32 0-223.872-1.127-217.795 3.095-237.829 12.811 8.722 28.272 13.829 44.905 13.829h8v8c0 8.836 7.164 16 16 16s16-7.164 16-16v-8h112v8c0 8.836 7.164 16 16 16s16-7.164 16-16v-8c11.503 0 31.072 1.035 52.905-13.829 4.102 19.468 3.095 6.08 3.095 237.829 0 17.645-14.355 32-32 32zm96-96c0 20.86-13.375 38.655-32 45.258v-125.258h32z"/></symbol></svg>